<svg xmlns="http://www.w3.org/2000/svg" viewBox="0 0 576 281.33"><path d="M140.67,281.33C63.1,281.33,0,218.23,0,140.66S63.1,0,140.67,0C203,0,258.6,41.79,275.84,101.64a5.05,5.05,0,1,1-9.71,2.8h0c-16-55.54-67.6-94.33-125.46-94.33A130.7,130.7,0,0,0,10.11,140.67c0,72,58.57,130.55,130.56,130.55a130.91,130.91,0,0,0,125.83-95.6,5.05,5.05,0,1,1,9.74,2.7A141,141,0,0,1,140.67,281.33Z" fill="#009da5"/><path d="M576,173.08a8.2,8.2,0,1,1-8.4-8h0.2a8.11,8.11,0,0,1,8.2,8" fill="#009da5"/><path d="M540.27,181.08h0A15.27,15.27,0,0,1,525,165.82V113.71H514V99.76h11V72.46h0a15.27,15.27,0,0,1,15.27,15.27h0v12h13.36v13.95H540.27v67.4h0Z"/><path d="M506.67,139.25a41.69,41.69,0,0,0-41.39-41.69c-22.9,0-41.69,18.35-41.69,42.72q0,2.08.2,4.11h0c2.39,22,21.37,38.63,43.91,38.63,14,0,27.47-6.48,35.41-16.94L491.19,159c-5.51,6.39-14.31,10.3-23.5,10.3-12.42,0-25.77-7.55-28.84-22.29h67.37C506.37,146,506.67,141.89,506.67,139.25Zm-67.82-4c0.74-11.89,11.6-23.78,26.28-23.78s25.54,11.89,26.28,23.78H438.85Z"/><path d="M392.91,181.08V136.9c0-6.31,0-25.39-20.26-25.39-12.77,0-21.43,9-21.43,25.25v44.33H336V99.76h14.24v8.66h0.29c8.22-10.86,20.55-10.86,23.78-10.86,12.62,0,22.9,5.43,28.77,14.53,3.23,5.28,5,11.74,5.14,20.84v48.15H392.91Z"/><path d="M301.17,181.08V168.46h-0.29c-5.87,10-16.59,14.68-27.6,14.68-27.45,0-43.16-21-43.16-42.42,0-19.82,13.94-43.16,43.16-43.16,11.3,0,21.73,4.7,27.6,13.65h0.29V99.76h15.27v81.32H301.17ZM273.28,111.5c-18.79,0-27.89,16.29-27.89,29.06,0,14.68,11.6,28.62,27.74,28.62a28.41,28.41,0,0,0,28.33-28.49h0v-0.13C301.47,123.25,289,111.5,273.28,111.5Z"/><path d="M214.72,181.08H199.45V72.46h15.27V181.08Z"/><path d="M98,97.94h0.43a14.3,14.3,0,0,1,14.3,14.3H113c7.34-10.57,18.5-14.68,28.92-14.68,27.6,0,42.13,22.17,42.13,43.89,0,20.55-15.41,41.69-41.1,41.69-17,0-25.54-8.66-28.62-13.8H114V211.6a16.05,16.05,0,0,1-16-16.05V97.94Zm42.91,13.56c-16,0-27.16,13.8-27.16,28.77,0,16.44,12.18,28.92,27.6,28.92,14.39,0,27.45-11.45,27.45-28.62,0-14.57-11.33-29.07-27.91-29.07h0Z"/></svg>
