<?xml version="1.0" encoding="UTF-8" standalone="no"?>
<svg
   xmlns:dc="http://purl.org/dc/elements/1.1/"
   xmlns:cc="http://creativecommons.org/ns#"
   xmlns:rdf="http://www.w3.org/1999/02/22-rdf-syntax-ns#"
   xmlns:svg="http://www.w3.org/2000/svg"
   xmlns="http://www.w3.org/2000/svg"
   xmlns:sodipodi="http://sodipodi.sourceforge.net/DTD/sodipodi-0.dtd"
   xmlns:inkscape="http://www.inkscape.org/namespaces/inkscape"
   viewBox="-2 -2 24.412001 12.128"
   version="1.1"
   id="svg18"
   sodipodi:docname="Planet_Labs_logo.svg"
   width="24.412001"
   height="12.128"
   inkscape:version="0.92.4 (unknown)">
  <metadata
     id="metadata24">
    <rdf:RDF>
      <cc:Work
         rdf:about="">
        <dc:format>image/svg+xml</dc:format>
        <dc:type
           rdf:resource="http://purl.org/dc/dcmitype/StillImage" />
        <dc:title></dc:title>
      </cc:Work>
    </rdf:RDF>
  </metadata>
  <defs
     id="defs22" />
  <sodipodi:namedview
     pagecolor="#ffffff"
     bordercolor="#666666"
     borderopacity="1"
     objecttolerance="10"
     gridtolerance="10"
     guidetolerance="10"
     inkscape:pageopacity="0"
     inkscape:pageshadow="2"
     inkscape:window-width="1920"
     inkscape:window-height="1015"
     id="namedview20"
     showgrid="false"
     inkscape:zoom="14.05866"
     inkscape:cx="21.215922"
     inkscape:cy="4.3877194"
     inkscape:window-x="1600"
     inkscape:window-y="0"
     inkscape:window-maximized="1"
     inkscape:current-layer="svg18" />
  <g
     id="g34"
     transform="matrix(0.10116008,0,0,0.10237725,-1.9590376,-1.9309745)">
    <path
       id="path2"
       d="M 58.64,117.28 A 58.64,58.64 0 1 1 115,42.37 a 2.11,2.11 0 0 1 -4,1.17 54.43,54.43 0 1 0 0.15,29.67 2.11,2.11 0 0 1 4.06,1.12 58.8,58.8 0 0 1 -56.57,42.95 z"
       inkscape:connector-curvature="0"
       style="fill:#009da5" />
    <path
       id="path4"
       d="M 40.84,40.83 H 41 a 6,6 0 0 1 6,6 h 0.12 a 14.33,14.33 0 0 1 12.06,-6.12 c 11.5,0 17.56,9.24 17.56,18.3 0,8.57 -6.43,17.38 -17.13,17.38 -7.1,0 -10.65,-3.61 -11.93,-5.75 H 47.54 V 88.21 A 6.69,6.69 0 0 1 40.85,81.52 V 40.83 Z m 17.89,5.65 c -6.67,0 -11.32,5.75 -11.32,12 0,6.85 5.08,12.06 11.5,12.06 A 11.54,11.54 0 0 0 70.36,58.6 c 0,-6.06 -4.71,-12.12 -11.63,-12.12 z"
       inkscape:connector-curvature="0"
       style="fill:#000000" />
    <path
       id="path6"
       d="M 89.51,75.49 H 83.15 V 30.21 h 6.36 z"
       inkscape:connector-curvature="0"
       style="fill:#000000" />
    <path
       id="path8"
       d="m 125.56,75.49 v -5.26 h -0.12 c -2.45,4.16 -6.91,6.12 -11.5,6.12 -11.44,0 -18,-8.75 -18,-17.69 0,-8.26 5.81,-18 18,-18 4.71,0 9.06,2 11.5,5.69 h 0.12 v -4.76 h 6.36 v 33.9 z m -11.63,-29 c -7.83,0 -11.63,6.79 -11.63,12.12 0,6.12 4.83,11.93 11.57,11.93 A 11.84,11.84 0 0 0 125.68,58.6 c 0,-7.22 -5.2,-12.12 -11.75,-12.12 z"
       inkscape:connector-curvature="0"
       style="fill:#000000" />
    <path
       id="path10"
       d="M 163.8,75.49 V 57.07 c 0,-2.63 0,-10.59 -8.44,-10.59 -5.32,0 -8.93,3.73 -8.93,10.53 v 18.48 h -6.36 V 41.59 H 146 v 3.61 h 0.12 A 12,12 0 0 1 156,40.67 c 5.26,0 9.55,2.26 12,6.06 a 16.53,16.53 0 0 1 2.14,8.69 v 20.07 z"
       inkscape:connector-curvature="0"
       style="fill:#000000" />
    <path
       id="path12"
       d="m 225.24,75.49 v 0 a 6.36,6.36 0 0 1 -6.36,-6.36 V 47.4 h -4.59 v -5.81 h 4.59 v -11.38 0 a 6.36,6.36 0 0 1 6.36,6.36 v 5 h 5.57 v 5.83 h -5.57 z"
       inkscape:connector-curvature="0"
       style="fill:#000000" />
    <path
       id="path14"
       d="m 211.22,58.05 a 17.321334,17.321334 0 1 0 -34.64,0.43 q 0,0.87 0.08,1.72 v 0 A 18.26,18.26 0 0 0 195,76.3 18.73,18.73 0 0 0 209.76,69.24 l -5,-2.94 a 13.05,13.05 0 0 1 -9.8,4.29 c -5.18,0 -10.74,-3.15 -12,-9.29 H 211 c 0.1,-0.43 0.22,-2.15 0.22,-3.25 z M 183,56.4 a 11,11 0 0 1 21.91,0 z"
       inkscape:connector-curvature="0"
       style="fill:#000000" />
    <path
       id="path16"
       d="m 240.12,72.16 a 3.42,3.42 0 1 1 -3.42,-3.35 3.38,3.38 0 0 1 3.42,3.35"
       inkscape:connector-curvature="0"
       style="fill:#009da5" />
  </g>
</svg>
